<?xml version="1.0" encoding="UTF-8"?>
<svg id="Layer_1" data-name="Layer 1" xmlns="http://www.w3.org/2000/svg" viewBox="0 0 750.5 751">
  <defs>
    <style>
      .cls-1 {
        fill: #ebbc9d;
      }

      .cls-1, .cls-2, .cls-3, .cls-4, .cls-5, .cls-6, .cls-7, .cls-8, .cls-9, .cls-10, .cls-11 {
        stroke-width: 0px;
      }

      .cls-2 {
        fill: #bcc8fc;
      }

      .cls-3 {
        fill: #390603;
      }

      .cls-4 {
        fill: #fefaee;
      }

      .cls-5 {
        fill: #e3ad1d;
      }

      .cls-6 {
        fill: #201a1a;
      }

      .cls-7 {
        fill: #e7dfe6;
      }

      .cls-8 {
        fill: #893404;
      }

      .cls-9 {
        fill: #9f440d;
      }

      .cls-10 {
        fill: #ed8c8c;
      }

      .cls-11 {
        fill: #040102;
      }
    </style>
  </defs>
  <path class="cls-8" d="m547.54,751H221.41c1.29-4.23-15.55-5.6-17.95,0h-119.68c.99-4.01-10.5-13.44-12.48-17.18-3.03-5.73-.45-12.88.89-18.89,3.57-16.12,9.36-31.67,15.91-46.8,12.81-29.55,28.76-57.84,45.93-85.06,4.58-7.26,9.13-14.54,13.95-21.65,2.04-3,3.13-6.57,6.15-5.6,1.03.33,5.44,6.44,5.7,7.16,2.11,5.93-1.53,16.11-1.08,22.89.48,7.22,1.93,14.37,4.33,21.2,5,14.24,13.94,26.98,24.54,37.61,5.16,5.18,10.79,9.91,16.62,14.32,5.08,3.85,14.21,7.32,17.9,12.47-13.89,2.91-27.64,5.4-41.58,6.99,34.21,12.41,73.64,13.54,109.51,10.1,31.46-3.02,64.79-8.18,93.97-20.81,13.71-5.93,26.84-13.96,37.08-24.96,5.15-5.52,9.51-11.76,13.04-18.43,3.5-6.63,4.51-15.02,8.12-21.3,2.92-5.09,13.96-7.11,19.32-9.44,7-3.04,13.85-6.41,20.48-10.19,12.15-6.94,23.39-14.98,31.97-26.17,2.75-3.59,1.98-4.54,5.88-2.92,3.12,1.3,6.15,4.87,8.88,6.9,6.18,4.59,12.59,8.88,19.23,12.75,13.87,8.09,28.97,14.81,45.17,16.02-8.27,21.11-32.47,26.17-52.25,30.12,17.95,1.21,36-2.84,48.55-16.58,12.42-13.6,15.74-33.13,20.1-50.37,30.33,19.76,62.51,31.8,98.44,36.76,7.43,1.02,14.7,1.53,22.2,1.34,4.66-.12,4.22-1.15,3.92,2.3-.23,2.63-3.14,6.64-4.3,9.08-7.02,14.81-14.73,29.26-23.39,43.18-4.28,6.87-8.78,13.6-13.66,20.06-6.36,8.43-7.49,5.32-17.08,3.35-15.79-3.25-33.18-1.6-48.64,2.54-7.24,1.94-14.37,4.41-21.16,7.58-4.95,2.31-12.12,9.24-17.29,9.67-5.34.45-14.34-6.28-19.13-8.67-6.8-3.39-13.45-7.07-20.05-10.84-7.15-4.09-14.21-8.35-21.14-12.82-6.87-4.43-7.46-8.06-9.4-15.74-2.07-8.21-4.04-16.48-5.66-24.79-.99-5.06-.5-16.52-3.64-20.69-3.88,11.9,1.07,27.98,3.5,39.79,2.79,13.53,6.18,26.95,9.8,40.29,3.68,13.54,7.84,26.94,12.33,40.24,3.91,11.57,9.59,23.27,12.29,35.17Zm-341.6-38.97c0,18.28,27.56,17.84,27.44-.14-.12-17.75-28.36-17.81-27.44.14Z"/>
  <path class="cls-11" d="m547.54,751c-2.69-11.9-8.38-23.6-12.29-35.17-4.49-13.3-8.65-26.69-12.33-40.24-3.62-13.33-7.01-26.75-9.8-40.29-2.44-11.81-7.38-27.89-3.5-39.79,3.13,4.16,2.65,15.63,3.64,20.69,1.62,8.31,3.59,16.58,5.66,24.79,1.94,7.68,2.53,11.31,9.4,15.74,6.93,4.47,13.99,8.72,21.14,12.82,6.6,3.77,13.25,7.45,20.05,10.84,4.79,2.39,13.8,9.12,19.13,8.67,5.18-.44,12.35-7.36,17.29-9.67,6.8-3.17,13.92-5.64,21.16-7.58,15.46-4.14,32.85-5.79,48.64-2.54,9.59,1.97,10.72,5.08,17.08-3.35,4.87-6.46,9.38-13.19,13.66-20.06,8.66-13.91,16.37-28.37,23.39-43.18,1.16-2.44,4.07-6.45,4.3-9.08.3-3.46.74-2.42-3.92-2.3-7.5.19-14.77-.32-22.2-1.34-35.93-4.95-68.11-17-98.44-36.76-4.36,17.24-7.69,36.77-20.1,50.37-12.55,13.75-30.6,17.79-48.55,16.58,19.78-3.95,43.98-9.01,52.25-30.12-16.2-1.21-31.3-7.93-45.17-16.02-6.65-3.88-13.06-8.17-19.23-12.75-2.73-2.03-5.76-5.6-8.88-6.9-3.9-1.62-3.12-.67-5.88,2.92-8.58,11.19-19.82,19.24-31.97,26.17-6.63,3.79-13.48,7.15-20.48,10.19-5.36,2.33-16.4,4.35-19.32,9.44-3.61,6.28-4.62,14.67-8.12,21.3-3.52,6.67-7.89,12.91-13.04,18.43-10.24,11-23.37,19.02-37.08,24.96-29.18,12.63-62.5,17.79-93.97,20.81-35.87,3.44-75.3,2.32-109.51-10.1,13.95-1.58,27.7-4.08,41.58-6.99-3.69-5.15-12.82-8.62-17.9-12.47-5.82-4.41-11.46-9.14-16.62-14.32-10.6-10.64-19.53-23.37-24.54-37.61-2.4-6.83-3.86-13.98-4.33-21.2-.45-6.78,3.19-16.95,1.08-22.89-.26-.72-4.67-6.83-5.7-7.16-3.03-.97-4.12,2.6-6.15,5.6-4.81,7.1-9.37,14.39-13.95,21.65-17.17,27.22-33.12,55.5-45.93,85.06-6.56,15.12-12.34,30.68-15.91,46.8-1.33,6.01-3.92,13.15-.89,18.89,1.98,3.74,13.47,13.17,12.48,17.18h-4.99c-4.19-5.66-12.06-12.93-13.23-20.05-.91-5.54,1.41-13.04,2.56-18.43,3.4-15.85,9.06-31.16,15.41-46.04,13.23-30.99,30.41-59.93,48.23-88.45-13.01-3.34-28.97-3.93-36.34,9.38-3.5,6.32-4.95,14.28-5.72,21.39-.24,2.21.68,9.08-.69,10.74-1.68,2.04-6.11,0-8.43.45,9.83,7.95,16.18,19.39,8.64,31.44-3.52,5.62-9.46,9.54-15.37,12.26-4.64,2.14-14.41,2.63-17.94,6.22-4.18,4.26-4.55,9.64-10.29,12.93-4.86,2.78-11.05,3.44-16.36,1.59-6.8-2.37-7.58-7.38-11.73-12.13-2.05-2.34-.81-2.06-3.81-2.73-3.47-.78-9.21,2.05-13.21,1.66v-4.99c5.02.21,9.45-.62,14.36-1.25,4.88-.63,3.24-1.57,5.35,2.8,3.2,6.62,6.18,12.85,14.41,13.38,16.96,1.08,20.46-21.85,22.94-34.04.24,5.71.55,11.38-.31,17.14,12.2-2.8,29.81-10.68,30.16-25.37.09-3.73-3.41-15.4-8.77-15.34-2.6.03-2.63,3.96-3.82,5.91-2.2,3.6-1.06,3.43-5.14,3.81-13.99,1.3-30.62-8.22-41-16.66-11.76-9.56-19.69-21.33-28.18-33.64v-23.94c2.19-4.96.87-9.09,3.09-14.11,2.18-4.94,4.75-9.77,7.38-14.48,5.17-9.24,10.9-18.25,17.53-26.51,6.48-8.08,13.96-15.75,22.7-21.38,9.92-6.4,19.64-7.03,30.92-8.81-9.63-16.07-16.96-34.82-10.42-53.54,1.26-3.61,4.7-7.48,2.68-9.91-1.64-1.98-11.69-3.03-14.77-4.26-7.29-2.91-14.14-6.98-19.84-12.42-26-24.81-26.91-79.32,3.2-101.39-16.45-11.13-27.29-26.94-27.02-47.34.07-5.07.7-10.2,2.64-14.92,1.5-3.66,6.04-7.59,6.23-11.05.16-2.98-5.88-11.25-7.17-14.48-2.08-5.23-3.71-10.62-4.91-16.11-5.07-23.15-2-46.06,8.13-67.39,8.17-17.22,23.08-40.75,45.25-31.2,1.13-1.67-3-11.12-3.5-13.49-1.09-5.11-1.76-10.33-1.91-15.55-.31-10.33,1.15-20.87,5.79-30.19C74.72,13.94,91.55,2.28,110,.88c1.26.15,2.5.06,3.7-.38h5.49c1.2.4,2.43.62,3.7.39,17.82,2.03,35.72,11.02,43.51,28.01,9.54,20.82,3.41,44.87.49,66.34,20.33-5.41,42.38-3.37,57.02,13.13,16.77,18.89,18.22,45.63,12.32,69.14,24.25-7.52,56.41-2.53,73.27,17.95,7.84,9.52,11.09,22.35,11.06,34.52-.02,7.33.58,5.21,7.26,6.65,5.14,1.11,9.64,3.57,13.27,7.36,3.42,3.56,5.8,8.03,7.56,12.61,1.72,4.49,1.3,10.67,5.51,12.86,5.81,3.03,5.44-3.27,7.66-7.35,2.72-5.02,6.73-9.18,11.43-12.38,4.64-3.16,9.92-5.41,15.31-6.89,7.52-2.06,4.91-5.25,5.58-12.56,1.04-11.33,5.57-22.53,13.95-30.41,22.18-20.84,59.11-16.22,85.54-8.11-6.13-25.34-10.55-56.73,10.48-76.76,20.45-19.48,48.44-14.06,68.84,2.1-2.56-18.57-1.98-43.47,13.41-56.77,13.93-12.03,37.43-10.6,53.12-3.21,16.85,7.93,31.35,24.35,30.38,43.92-.49,10.01-4.6,19.91-9.62,28.47-2.44,4.16-5.23,8.07-8.28,11.8-1.9,2.32-7.68,6.61-8.49,9.55,28.2,12.47,42.96,40.14,42.04,70.37-1,32.87-22.79,60.65-49.5,78.26,37.87,24.13,32.82,68.27,13.68,103.04,8.34-2.62,16.12-4.43,24.95-3.64,2.86.25,9.42,2.97,11.96,2.16,1.98-.63.99-1.29,2.07-2.72,2.1-2.79,2.51-9.74,3.31-13.15,1.03-4.4,1.98-8.82,2.93-13.23,1.78-8.28,3.46-16.59,5.42-24.83,6.42-26.98,21.89-61.62,50.15-71.86v4.99c-11.93,3.81-22.48,18.45-28.84,28.48-8.33,13.13-14.26,27.58-17.96,42.68-3.76,15.36-7.64,31.06-10.76,46.56-.58,2.9-1.19,3.32.46,5.53,1.59,2.12,9.01,4.03,11.53,5.48,6.22,3.58,11.99,7.99,17.36,12.73,2.96-2.83,3.87-11.56,5.35-15.37,2.11-5.44,4.49-10.78,7.02-16.04,2.53-5.26,5.23-10.45,7.98-15.6,2.07-3.89,4.14-11.11,7.85-13.67v8.48c-9.89,13.65-17.39,31.85-22.33,47.87-.99,3.22-2.54,6.2-1.13,9.3.95,2.08,4.14,4.87,5.53,6.76,4.76,6.52,8.62,14.03,10.36,21.96,3.68,16.76-5.44,29.53-15.41,41.91-10.69,13.26-23.39,25.2-32.72,39.51,7.83,2.33,15.72,4.51,23.37,7.39,3.91,1.47,8.02,3,11.59,5.2,4.26,2.62,4.24,2.57,2.75,7.15-.79,2.41-3.9,7.02-3.29,9.59.63,2.65,5.94,5.52,7.74,7.55,4.6,5.17,6.82,8.98,3.9,15.33-13.75,29.84-27.27,59.62-47.63,85.71-8.94,11.45-19.8,23.29-33.32,29.3-15.07,6.7-32.48,3.26-47.69-1.25-31.74-9.41-60.49-26.36-88.34-43.83,2.32,15.53,8.92,31.57,13.58,46.55,4.73,15.2,9.72,30.32,14.57,45.48h-4.49Zm138.05-195.95c-.64.98-1.01,2.37.47,2.39,4,.05,8.04.65,12.02-.32,10.26-.48,20.6-1.66,30.38-4.93-8.12-4.66-18.27-7.04-27.27-9.34-4.81-1.23-7.13-3.05-10.26.19-2.68,2.77-4.41,8.45-5.34,12.02Zm-368.91,87.76c8.15-.78,17.7-7.01,25.15-10.41,8.53-3.89,16.94-8.02,25.23-12.41,17.23-9.11,33.52-19.54,49.84-30.16-1.33-1.27-23,8.34-25.67,9.18-10.18,3.23-20.52,5.77-30.98,7.91-5.57,1.14-11.18,2.16-16.82,2.95-4.72.65-9.97-.06-13.14,3.49-3.05,3.41-4.44,11.47-6.54,15.72-2.27,4.6-5.11,8.89-7.43,13.46-.17.18-.71.25-.34.61.23.22.59.03.7-.34Zm79.1-326.51c5.34,7.39,7.1,16.18,4.36,24.94-1.96,6.24-9.82,12.47-5.44,18.25,2.07,2.74,9.04,7.69,11.76,1.94.72-1.52-2.41-5.84-3.04-7.75-1.37-4.21-1.72-8.65-.84-13.01,2.55,4.04,2.28,14.97,6.04,18.02,1.65,1.34,1.65.35,3.55-.09,4.35-1.02,3.71-2.48,3.48-5.79-.44-6.28-3.8-12.64-1.92-19.13,2.12-7.32,6.77-5.59,12.7-7.67.48-7.29.74-13.32-4.31-18.73-4.87-5.23-10.09-10.2-15.69-14.66-11.52-9.18-25.97-17.36-41.23-15.73,5.56,11.57,6.96,23.11,1.28,35.2,8.52-3.48,17.18,1,20.39,9.38,3.39,8.87-.81,16.09-1.69,24.68-.21,2.02-.8,5.43,2.31,6.2,2.84.7,4.51-5.22,5.68-7.73,4.18-8.98,5.78-18.43,2.25-27.96.12-.13.24-.25.36-.38Zm-171.87,350.42c.22.22.44.44.65.66.33-.43.11-.65-.65-.67-.31-2.67-4.01-5.97-5.5-8.04-2.48-3.44-4.87-6.94-7.18-10.5-4.32-6.68-8.31-13.57-11.94-20.65-7.44-14.52-13.29-29.81-17.22-45.65-3.5-14.08-5.32-28.47-5.83-42.96-.24-6.7.56-13.19,1.05-19.84.52-7.06-2.01-8.68-6.43-13.82-2.68-3.11-5.26-6.38-7.76-9.64-1.23-1.6-3.54-6.57-5.27-7.36-3.83-1.75-6.36,8.9-7.4,12.19-4.01,12.72-4.07,26.64.37,39.26,2.17,6.16,5.42,11.87,9.37,17.06,1.34,1.76,4.23,4.08,4.78,6.3.63,2.55-1.26,6.22-1.67,8.75-2.19,13.62,1.34,28.22,7.17,40.54,10.17,21.49,31.59,44.4,53.47,54.36Zm392.49-358.51l-.4-.35c4.75-5.5,14.57-9.34,20.44-14,6.84-5.43,13.35-11.33,19.25-17.78,11.35-12.42,19.85-26.07,23.01-42.79,3.21-17.01,1.52-35.38-6.68-50.82-8.22-15.49-21.06-23.77-36.73-30.48,13.36-14.54,28.69-27.07,30.35-48.52,1.51-19.46-14.5-36.15-31.77-42.54-15.31-5.66-37.53-5.65-48.65,8.16-12.56,15.59-10.99,42.25-5.5,60.24-4.92-3.48-8.41-8.6-13.39-12.13-5.95-4.23-12.72-7.69-19.86-9.35-14.14-3.3-29.31,2.04-39.7,11.86-20.74,19.62-15.48,55.34-6.01,79.23-27.73-10.5-72.19-16.38-93.41,10.08-5,6.23-7.74,13.58-8.84,21.44-.54,3.82.08,7.46-.12,11.15-.2,3.82.86,2.46-2.45,4.08-6.85,3.35-14.01,4.16-20.46,8.95-6.17,4.58-11.45,10.97-13.38,18.53,13.55-.42,24.2,1.4,36.06,8.46,11.2,6.67,20.18,15.74,29.1,25.1.61-6.47,6.83-11.58,12.84-12.68,2.86-.52,6.6,1.4,9.07.75,2.92-.77,4.97-4.84,7.68-6.38,20.13-11.41,27.38,19.7,29.53,32.73,9.14-2.28,19-9.33,27.36-13.68,4.14-2.16,5.42-4.15,7.83-.93,2.21,2.96,1.86,11.87,2.01,15.54.76,19.46-2.83,38.54-11.65,55.99,14.13-3.83,28.03-4.37,36.27,9.48,6.5,10.93,9.77,27.01,2.72,38.46-3.4,5.53-8.06,5.78-6.77,12.06,1.48,7.2,4.93,13.78,5.86,21.31,1.96,15.85-2.92,29.04-9.28,43.19,8.47,1.63,17.88,1.91,26.21-.62,3.4-1.03,8-2.72,10.48-5.41,3.12-3.37,2.59-1.96.8-5.89-2.74-5.99-7.01-10.75-8.93-17.3-2.23-7.63-2.76-15.8-1.82-23.68,1.7-14.29,8.49-29.93,22.03-36.59,13.7-6.74,31.12-2.91,41.19,8.4,6.57-11.38,14.82-20.48,20.01-32.9,5.28-12.63,9.74-25.99,9.8-39.82.05-13.48-5.08-25.86-14.31-35.65-2.92-3.1-8.42-9.34-12.84-10.25-4.89-1.01-11.68,4.62-16.9,5.37ZM77.49,104.6c-8.93-8.74-20.45-19-32.89-9.27-10.17,7.96-16.97,22-21.44,33.82-5.4,14.26-8.17,29.23-7.09,44.49.53,7.52,1.73,15.05,3.64,22.35,1.07,4.1,3.97,17.36,8.02,19.63,3.63,2.04,11.5-3.4,16.96-2.17,6.03,1.35,9.36,6.21,8.09,12.45-1.43,6.99-7.31,9.1-13.4,6.63-3.72-1.51-9.58-8.97-12.45-8.36-5.29,1.13-6.85,16.55-6.93,20.67-.13,7.28,1.5,14.69,4.59,21.27,5.75,12.25,15.9,20.09,27.66,26.1-11.74,6.25-19.59,13.84-23.73,26.95-4.09,12.98-3.6,27.96-.47,41.09,2.78,11.62,8.33,22.49,17.17,30.67,11.29,10.44,24.07,13.57,38.57,16.63-14.26,16.71-11.37,38.59-2.02,56.93,4.12,8.09,6.51,9.47,15.03,10.4,11.05,1.21,21.82,4.23,32.22,8.11,5.2,1.94,10.15,4.31,15.21,6.57,5.03,2.25,4.32,2.2,6.94-2.59,2.53-4.63,2.5-4.03-.08-8.56-2.32-4.07-2.42-5.99-6.56-6.44-8.97-.97-15.92.12-24.15-5.14-6.78-4.34-11.62-10.99-14.78-18.32-6.47-15.02-5.49-36.87,6.61-48.99,5.81-5.82,14.5-8.39,22.61-7.4,3.86.48,7.34,1.85,10.58,4.01,4.36,2.9,2.62,3.66,6.56.56,7.87-6.18,14.59-15.11,21.79-22.14,4.27-4.17,15.39-11.52,16.44-17.11.46-2.43-1.65-6.67-1.93-9.38-.28-2.69-.3-5.32-.02-8,.41-3.89,1.37-7.77,2.98-11.34,3.15-7,8.98-12.97,16.2-15.75,10-3.86,17.21.1,26.4,3.29,4.4,1.53,4.47.3,8.43-3.11,2.99-2.57,6.02-5.1,8.99-7.7,8.08-7.09,10.71-15.9,15.04-25.57,3.02-6.75,6.24-17.63,12.19-22.49,5.07,4.17,10.12,8.37,15.11,12.63,5.97,5.09,4.86,3.1,10.18-1.59,8.63-7.6,18.94-8.86,27.96-1.13,5.24,4.49,3.23,5.63,9.27,3.05,6.11-2.61,7.36-.23,5.14-7.94-3.26-11.3-10.06-20.87-22.54-21.97-6.41-.56-6.8,2.48-7.46-3.43-.73-6.52.03-12.87-1.52-19.37-2.49-10.5-8.42-20.07-17.13-26.51-20.09-14.84-46.1-15.83-68.3-5.96,7.79-21.83,9.11-48.32-4.99-68.02-14.62-20.42-40.71-24.13-63.15-15.49,0-5.8,2.95-12.39,3.85-18.24.88-5.69,1.4-11.46,1.65-17.2.48-11.23.2-23.32-4.6-33.71-8.53-18.47-30.63-27.19-50.05-25.95-20.74,1.32-39.04,15.05-45.1,35.1-3.32,10.99-2.84,22.16-.43,33.28,2.3,10.66,7.69,19.25,11.44,29.26-.11.14-.23.28-.34.42Zm128.68,425.61c2.18-8.55,4.47-19.69,10.13-26.7,5.64-6.99,13.13.71,17.73,5.94,6.11,6.93,10.71,15.4,14.67,23.7,2.2,4.6,4.16,9.3,5.96,14.07.95,2.52,1.9,8.46,4.24,10.24,2.57,1.96,8.78,1.35,12.07,2.29,4.63,1.32,11.26,5.66,15.87,5.79,3.13.09,6.01-2.74,9.07-4.11,4.19-1.87,8.74-3.19,13.15-4.38,5.5-1.49,11.09-2.64,16.69-3.68,2.21-.41,12.4-3.49,14.18-2.3,2.43,1.63,1.26,8.16,1.06,11.28-.41,6.28-2.6,7.63,3.44,8.54,8.23,1.25,18.28-.99,26.51-1.84,8.41-.87,16.79-2.18,25.14-3.54,19.3-3.16,38.49-7.83,57.12-13.75,33.16-10.53,72.01-25.61,86.66-59.93,6.88-16.12,7.21-33.73,1.16-50.14-1.94-5.25-.89-4.6-5.07-4.59-2.16,0-4.12.83-5.54,2.29-1.11,1.14-1.92,5.4-2.86,6.9-2.01,3.23-4.77,5.76-7.91,7.87-3.38,2.27-7.41,4.36-11.48,4.9-4.33.58-6.04-.19-9.63,2.05-7.18,4.48-13.51,13.35-19.85,19.03-14.53,13.02-29.72,25.31-45.93,36.18-29.45,19.76-64.45,36.25-100.87,33.59-36.31-2.65-67.55-23.55-87.19-53.86-10.22-15.77-15.51-34.24-19.11-52.52-1.93-9.79-3.14-19.71-3.69-29.68-.45-8.23-4.44-13.56-5.94-21.42-1.05-5.51.05-6.04-4.27-9.34-3.07-2.35-6.28-4.34-9.26-6.86-4.35-3.68-4.13-2.91-8.53,1.48-3.2,3.19-6.35,6.41-9.58,9.57-7.32,7.18-14.74,14.23-21.96,21.52-4.18,4.22-4.81,4.41-3.74,10.1.75,3.97,1.48,7.81,1.44,11.87-3.81-12.39-10.44-30.1-24.54-33.8-14.41-3.78-24.99,7.6-28.28,20.5-8.03,31.42,21.7,65.79,52.06,42.87-1.52,3.85-4.99,5.28-6.63,8.38-1.55,2.92.08,4.17,1.9,7.17,4.44,7.3,9.28,14.33,14.67,20.97,10.34,12.77,22.5,25.2,36.92,33.33Zm21.84-158.82c.15.23.3.45.44.68-12.62,10.21-9.99,30.23,4.09,37.71,6.31,3.35,13.89,3.77,20.79,2.35,3.3-.68,5.86-2.8,7.98-.84,1.43,1.31,1.87,8.43,2.92,10.8,6.39,14.37,19.84,18.84,34.8,15.85,4.53-.91,8.33-3.45,12.63-4.64,3.89-1.07,1.8-1.8,3.91.69,1.09,1.29,1.39,5.76,2.19,7.6,1.23,2.82,2.92,5.46,5.06,7.68,10.06,10.42,29.47,11.03,42.18,5.63,4.9-2.08,4.94-4.07,8.82-.86,2.71,2.24,4.67,6.21,7.35,8.69,5.77,5.33,11.96,8.17,19.78,5.78,7.95-2.43,15.28-7.56,21.77-12.59,2.09-1.62,3.19-3.4,5.39-2.69,1.89.6,5.31,5.85,7.26,7.23,14.52,10.26,29.18,3.55,39.79-8.56,1.39-1.58,5.68-9.96,7.35-10.4,1.89-.5,1.77,1.29,3.28,3,5,5.68,11.11,10.43,19.02,10.37,6.86-.05,13.98-3.93,18.23-9.28,5.13-6.46,3.68-13.31.57-20.36,8.03,1.89,5.47,11.02,14.52,6.5,6.04-3.02,10.4-7.89,11.85-14.55,2.83-13.01-3.48-34.54-18.34-37.39-7.93-1.52-19.52.56-24.93,6.68-5.52,6.25-10.14,12.48-17.08,17.4-14.9,10.56-35.46,16.39-52.71,8.14-3.13,39.7-93.49,29.82-83.08-11.07-25.63,4.5-50.07.15-69.96-17.64-18.26-16.33-24.25-41.25-43.25-57.2-8.46-7.11-19.69-13.22-30.96-9.44-10.48,3.52-16.41,13.66-17.45,24.23-1.15,11.77,3.99,23.36,12.31,31.53,1.96,1.93,8.71,8.83,11.84,8.05,1.87-.46,3.32-4.16,4.84-5.46,1.93-1.65,4.43-2.7,6.77-3.61Zm352.25,75.29c.02,12.06,3.11,25.03,11.4,34.19,3.9,4.31,8.79,7.5,14.52,8.7,4.16.88,15.83,1.41,18.41-3.07,1.47-2.56-.1-12.26.48-15.55,1.23-6.99,2.54-10.16,1.61-17.17-.84-6.3-.68-13,.36-19.26,1.19-7.15,2.47-9.44-3.79-13.83-21.51-15.06-44.33.54-50.2,22.85-6.1,23.14,4.05,43.46,21.52,58.36,8.86,7.56,18.96,13.32,28.16,20.38,4.35,3.34,7.89,7.14,10.14,12.2,1.54,3.46,1.18,9.4,2.91,12.37,3.94,6.74,23.63,8.09,31.05,9.03,3.04.39,9.9,2.73,12.7,1.01,3.04-1.88,3.8-8.7,5.37-11.85,10.87-21.8,30.52-37.85,44.88-57.17,14.52-19.53,8.6-40.35-6.37-57.95-14.56-17.11-38.66-30.41-61.69-26.55-25.18,4.22-33.88,28.49-30.71,51.46,12.8-13.49,26.1-19.3,45.04-17.02,14.83,1.79,32.41,7.95,34.1,25.09-6.4-9.03-10.62-14.79-21.91-18.42-9.95-3.2-21.09-4.12-31.33-1.93-20.01,4.28-30.58,23.19-28.3,42.89,1.86,16.04,13.8,41.72,34.19,35.96,8.73-2.47,14.61-9.65,18.08-17.7,3.56-8.27,7.1-23.32,3.09-32,5.33,4.03,3.69,20.32,2.78,25.88-1.36,8.31-5.2,15.78-11.53,21.4-14.17,12.56-32.37,6.45-42.18-8.25-2.43-3.64-4.38-7.59-5.72-11.76-1.87-5.8-.45-7.59-6.68-6.23-8.14,1.77-16.47,2.09-23.92-2.23-13.66-7.91-23.74-28.79-16.48-43.81ZM6.01,550.97c5.89,34.32,41.09,59.7,73.68,64.37,8.52,1.22,5.47-6.74,6.79-13.47,1.35-6.92,3.3-14.25,7.55-20,4.03-5.46,9.62-8.43,16.26-9.51,4.09-.67,8.48-.66,12.6-.27,2.57.24,8.44,2.55,10.56,1.87,4.68-1.49,9.65-13.05,12.56-17.19,1.78-2.54,4.38-4.71,4.05-7.75-.26-2.46-3.06-6.35-3.9-8.63-2.97-8.04-4.12-16.57-3.46-25.11.35-4.5,5.24-16.78,3.14-20.03-1.75-2.71-19.56-9.71-22.7-8.96-3.91.94-9.19,10.55-12.28,13.67-11.08,11.19-24.69,20.36-39.63,25.51-14.87,5.12-30.46,5.25-43.97-3.3-4.16-2.63-4.09-3.11-7.18,1.33-2.12,3.05-3.88,6.4-5.67,9.65-2.54,4.6-8.62,12.44-8.4,17.83Zm194.95,128.86c28.86,6.99,59.88,7.75,89.3,4.57,28.61-3.09,58.01-8.03,84.91-18.57,22.16-8.69,42.91-22.12,54.9-43.26,3.07-5.41,5.51-11.16,7.27-17.13,1.69-5.72,1.33-7.31,6.77-9.46,10.97-4.34,21.86-8.32,32.27-13.98,10.34-5.62,20.89-12.08,28.88-20.86,3.95-4.34,7.59-9.42,9.46-15.04.97-2.91,3.09-12.22.51-14.91-2.79-2.92-12.94,5.32-16.92,7.3-4.88,2.43-9.89,4.57-14.9,6.69-10.15,4.3-16.89,11.95-25.3,18.94-39.82,33.13-84.9,60.36-132.86,79.96-4.42,1.81-9.73,3.13-13.67,5.94-3.12,2.23-3.93,5.77-7.11,5.74-.25,0-2.93-1.97-4.1-2.08-1.54-.15-4.61,1.62-5.84,2.06-6.54,2.37-13.26,4.35-19.91,6.38-24.23,7.4-48.81,12.87-73.66,17.7Zm57.35-362.86c0,28.15,15.21,60.49,40.86,74.54,11.62,6.37,25.79,9.5,39.01,8.79,14.08-.76,24.92-6.19,36.61-13.62,5.58-3.54,10.86-7.55,16.36-11.15,3.25-2.13,4.45-3.5,8.18-1.37,4.3,2.46,8.2,8.63,12.12,11.94,4.74,4,9.65,7.78,14.24,11.96,9.85,8.98,16.4,13.55,30.13,14.42,10.63.67,20.86-3.42,29.54-9.36,21.28-14.54,32.53-37.65,35.09-62.99.78-7.72.7-15.14-.12-22.85-.94-8.89-1.4-8.44-9.28-4.84-12.25,5.6-24.54,11.11-36.64,17.02-12.7,6.21-25.34,12.53-38,18.8-6.38,3.16-12.71,6.43-19.03,9.7-4.44,2.29-10.94,7.13-15.77,8.19-8.12,1.78-20.43-14.07-26.12-19.26-9.97-9.09-20.23-17.86-30.24-26.9-18.6-16.8-38.92-32.51-56.25-50.61-4.15-4.34-7.48-10.66-12.2-4.84-3.81,4.69-6.2,10.48-8.55,15.97-4.89,11.4-11.2,23.67-9.92,36.44Zm94.6,159.62c5.58-1.35,15.97,1.97,21.17,4.04,5.94,2.37,11.66,5.99,14.46,11.97,2.23,4.76-.4,11.94,2.93,14.55,2.05,1.6,10.86.75,13.56.93,4.46.3,8.92.63,13.38.82,9.28.41,14.11,1.22,22.08-4.06,6.26-4.14,12.22-8.69,18.03-13.42,6.72-5.48,13.2-11.25,19.6-17.1,2.97-2.72,17.21-12.84,17.16-16.81,0,.55-9.51-5.75-10.28-6.16-4.33-2.29-4.68.75-8.06,4.43-6.36,6.94-14.57,13.45-24.24,14.37-4.83.46-9.45-.52-13.8-2.58-3.97-1.88-6.8-5.86-10.55-7.66-2.82-1.35-1.07-1.65-4.21-.48-1.67.63-3.25,2.46-4.75,3.5-4.03,2.8-8.26,5.35-12.7,7.45-8.57,4.06-16.74,4.49-24.8-.97-3.44-2.33-6.46-5.32-9.27-8.35-3.81-4.11-3.58-4-9.13-1.78-15.23,6.1-36.15,5.45-46.17-9.39-1.68-2.49-2.67-9.36-4.39-10.96-2.54-2.36-5.37.24-8.87,1.35-7.97,2.54-16.38,3.35-24.49.91-8.2-2.46-14.38-7.95-18.18-15.59-1.12-2.26-1.74-9.61-3.42-11.12-1.64-1.47-4.57.47-6.71.78-4.46.64-9.56.12-13.93-.79-2.71-.56-8.46-3.63-10.18-2.23-2.54,2.07,2.13,22.92,2.6,26.07,1.34,9.01.69,20.9,12.43,22.16,4.71.51,2.39-.64,5.96-4.82,2.16-2.53,5.46-4.37,8.54-5.52,16.35-6.11,36.2,2.81,50.02,11.28,4.37,2.68,8.54,5.66,12.58,8.82,2.98,2.32,6.1,6.46,9.49,7.96,5.9,2.62,17.4-1.05,24.13-1.62Zm272.2,53.29c-9.2-9.87-22.87-15.84-33.15-24.65-1.57-1.35-6.03-7.15-7.81-7.39-2.34-.31-1.39.3-4.06,2.01-5.8,3.73-11.22,6.41-18.17,7.57-7.22,1.21-14.16-1.26-21.04-.59-5.35.52-7.2,5.9-10.89,9.71-3.63,3.75-10.62,6.91-11.16,11.99-.25,2.35,1.69,5.83,1.88,8.45.19,2.68-1.52,7.17-.78,9.51,1.51,4.8,9.56,9,13.76,12.1,6.04,4.45,12.28,8.66,18.76,12.43,11.27,6.56,24.42,13.39,37.65,14.49,6.85.57,7.13-3.94,9.05-9.78,2.31-7.03,4.03-14.28,5.91-21.43,1.42-5.4,1.94-12.27,5.21-16.94,3.39-4.85,9.54-5.89,14.82-7.49Zm-375.48,38.66c2.06-5.75,5.11-7.51,3.54-13.4-1.47-5.53-4.33-11.15-6.66-16.36-4.84-10.83-10.58-22.67-19.5-30.76-5.47-4.96-6.97-5.58-10.06.89-2.91,6.1-4.81,12.85-6.42,19.39-3.11,12.59-4.95,25.57-5.43,38.53-.52,14.09,1.6,28.02,5.79,41.47,1.1,3.53,4.28,17.26,7.88,19.28,3.51,1.97,9.73-4,12.8-6.54,4.4-3.64,8.33-7.86,11.56-12.58,3.66-5.35,5.01-8,3.85-14.12-.59-3.13.18-6.82-.46-9.73-.76-3.42.68-2.57-2.88-3.6-4.87-1.42-14.15.92-19.33,1.23,5.62-2.14,11.1-3.6,17.07-4.24,6.36-.68,7.82-1.73,4.18-7.72-5.96-9.82-13.88-18.91-23.34-25.46,12.45,3.8,21.37,11.75,27.4,23.73Zm43.11,36.58c-3.05-2.92-8.43-11.57-12.16-13-4.08-1.56-3.54,2.6-3.75,6.81-.59,11.59,7.08,22.7,13.14,32.05,3.57,5.51,7.37,10.94,11.43,16.1,4.35,5.54,4.62,4.73,8.74-1.23,6.9-10,12.27-20.86,16.48-32.24,4.41-11.91,7.41-24.22,9.51-36.73.93-5.53,2.36-11.87,1.9-17.52-.43-5.29-1.12-4.56-6.24-3.58-10.88,2.09-22.3,4.36-32.52,8.78-4.46,1.93-8.63,4.41-12.05,7.91-1.54,1.58-9.76,11.71-7.82,13.58,1.15,1.11,15.47-1.98,17.47-2.07,4.12-.18,14.71-1.01,17.87,2.84-10.11.28-19.88,1.79-30.15,3.13,4.42,4.32,6.58,9.23,8.16,15.16Zm40.08-117.3c-18.3-17.37-44.03-40.37-71.61-34.65-3.79.79-13.36,4.03-14.12,8.62-.62,3.73,8.87,7.15,12.13,8.89,13.46,7.19,27.65,13.2,42.06,18.2,14.55,5.05,29.45,9.12,44.54,12.21,7.09,1.45,14.22,2.74,21.39,3.76,3.8.54,16.15,4.37,19.5,2.06,3.59-2.48-1.05-13.48-2.66-15.81-3.23-4.68-8.52-7.31-13.82-8.96-6.51-2.03-13.74-2.59-20.53-2.56-5.46.02-15.48-.17-20,3.24,1.1,1.73,2.59,3.05,3.12,5.01Zm128.82,66.06c-27.01,7.53-53.94,14.7-81.81,18.3-6.98.9-14.02,1.59-21.03,2.17-4.34.36-13.7-1.38-17.26.62-3.77,2.11-3.44,10.16-4.41,14.55-1.02,4.6-5.54,13.99-4.87,18.56.61,4.18,64.2-13.67,70.02-15.86,11.03-4.16,23.16-8.73,32.71-15.76,9.38-6.91,18.05-14.74,26.66-22.56Zm-380.09-74.68c-18.96-.55-34.68,10.26-46.59,24.06-3.73,4.33-12.42,10.95-7.11,15.74,6.53,5.89,19.47,6.59,27.65,5.75,19.62-2,38.29-13.57,52.05-27.25,2.59-2.58,7.27-6.31,8.4-9.82.88-2.74,1.75-1.88-.13-3.81-1.07-1.1-5.18-1.24-6.6-1.54-9.11-1.95-18.36-3.03-27.67-3.13Zm316.86-49.37c12.49,1.32,36.93-5.55,32.12-22.89-1.97-7.1-11.26-12.63-16.78-16.83-3.95-3-7.96-5.93-11.79-9.08-3.93-3.22-3.86-4.85-7.79-3.38-3.78,1.41-7.74,5.79-11.32,7.96-4.28,2.59-8.79,4.75-13.02,7.42-5.97,3.77-11.75,9.38-10.5,17.15,2.5,15.56,26.58,20.23,39.09,19.64Zm-59.89,116.22c3.59.65,8.33-.19,11.94-.66,5.06-.66,5.15-1,6.45-5.81,2.11-7.8,6.5-19.41,6.2-27.36-.16-4.23-1-3.48-5.55-4.17-4.54-.68-9.06-1.58-13.56-2.47-8.99-1.77-17.9-3.93-26.71-6.45-7.37-2.1-11.6-6.14-13.45,2.56-1.92,9.07-4.1,18.09-6.14,27.14-1.06,4.71-2.66,6.95,1.45,9.62,3.28,2.13,8.32,3.06,12.06,4.08,8.89,2.41,18.09,3.58,27.3,3.52Zm-6.43-258.89c.68-9.02,3.14-13.64-6.4-19-6.91-3.89-18-1.68-22.02,5.98-2.08,3.97-1.63,2.92,2.29,6.28,3.68,3.16,7.33,6.35,11,9.52,8.06,6.96,16.29,13.74,24.32,20.73,7.51,6.53,14.99,13.11,22.43,19.72,2.75,2.44,13.95,15.65,17.29,14.58,1.68-.54,2.56-8.91,2.74-10.32.59-4.69.7-10.58-2.23-14.62-4.45-6.14-14.86-7.12-19.4-.55-.31-3.1,1.85-7.42,2.46-10.53.86-4.39,1.39-8.85,1.24-13.32-.2-5.9-1.3-12.87-5.27-17.52-10.11-11.87-23.19-1.23-28.45,9.06Zm102.5,47.88c-3.68-2.27-10.12-6.64-14.66-3.75-5.16,3.28-2.16,13.96-.85,18.55,1.44,5.05,1.26,4.51,5.95,2.38,4.09-1.85,8.07-4.05,12.09-6.06,8.12-4.06,16.16-8.27,24.25-12.38,5.02-2.55,18.68-6.45,20.72-11.61,2.21-5.59-3.8-19.24-6.73-23.97-3.46-5.58-9.01-9.57-15.72-6.62-2.02.89-6.11,3.63-5.97,6.27.13,2.37,4.11,4.01,4.63,6.73-8.16-4.78-21.49-10.78-26.52,1.17-4.44,10.55-2.31,19.98,2.79,29.29Zm180.74,202.9c-11.81,11.22,4.47,17.37,13.07,22.19,10.93,6.13,22.41,11.35,34.3,15.32,11.69,3.91,23.79,6.81,35.92,8.96,3.99.71,14.27,4.3,17.71,2.3,2.64-1.54,5.18-11.11,6.5-14.07.6-1.34,7.44-14.31,6.51-15.53-1.16-1.53-6.91,1.36-8.91,1.79-13.63,2.95-27.95,3.21-41.82,2.32-23.65-1.52-45.4-7.22-63.29-23.27Zm-23.34,152.58c13.93,7.69,34.42,12.78,50.24,11.92,8.03-.44,15.41-3.21,22.09-7.64,4.96-3.29,16.18-10.72,18.36-16.43,2.08-5.48-13.34-5.86-17.93-6.26-7.98-.7-16.12-.05-24.03,1.16-17.03,2.6-33.92,8.38-48.73,17.25Zm-290.21-195.36c-.4.72-30.52-14.12-34.01-14.92-3.93-.91-2.86-1.31-4.65,3.38-1.2,3.15-2.19,6.43-3.31,9.62-2.66,7.58-5.1,9.99.54,16.24,4.77,5.29,9.81,10.21,15.39,14.64,2.38,1.89,12.55,11.07,15.4,9.34,2.79-1.69,4.21-14.66,5.23-18.32,1.86-6.65,3.66-13.3,5.41-19.98Zm-31.58,110.79c-.37-.73-17.43-4.65-18.18-4.26-2.69,1.41-8.08,12.44-9.62,15.66-4.03,8.44-6.26,18.34-9.24,27.21-1.8,5.37-7.23,14.74-5.31,19.93,2.57,6.93,8.47,3.88,13.65,2.62,3.01-.73,5.27-.9,7.32-3.03,2.43-2.54,3.62-9.96,4.85-13.31,5.47-14.95,11.1-29.85,16.53-44.82Zm160.33-93.1c-2.59-.72-6.67.33-9.29.37-4.13.07-8.28-.29-12.4-.46-7.51-.31-14.9-.44-22.39-1.18-4.36-.43-15.47-3.36-18.69-1.18-3.03,2.04-4.05,18.8-4.91,22.67-.39,1.73-3.19,8.83-2.03,10.16,1.33,1.52,6.43-.77,7.95-1.14,7.37-1.81,14.52-4.11,21.55-7.01,14.19-5.85,27.49-13.7,40.21-22.23ZM4.61,560.59c-1.82,7.27-4.49,13.58-.17,20.67,7.13,11.69,15.24,22.38,25.78,31.21,11.16,9.35,23.93,14.91,38.32,16.83.82.11,1.79.19,2.19-.75,1.4-3.3,2.72-6.63,4.05-9.91-15.84-3.41-30.05-9.5-42.61-19.56-12.68-10.16-21.15-23.19-27.57-38.5Zm215.84,72.68c-6.11,4.55-16.42-33.82-17.31-38.73-.77-4.23-.22-10.39-1.69-14.38-1.09-2.96-3.54-4.17-5.83-6.36-5.84-5.58-9.88-12.57-14.04-19.4,3.46,33.84,15.5,64.48,34.23,93.23,1.71-4.97,3.37-9.41,4.63-14.36Zm64.27-64.08c-6.18-2.67-21.43-10.87-27.84-5.95-5.85,4.49-7.64,22.7-6.08,28.95,1.44,5.79,6.59,7.17,12.01,8.13,2,.35,5.27,1.25,7.14.58,3.16-1.13,1.67-.13,2.82-3.08,1.68-4.29,1.22-9.91,2.87-14.46,1.93-5.34,4.95-10.24,9.07-14.17Zm-83.86,5.17c.55-6.63.36-13.26,1.07-19.89.45-4.15,4.15-14.89,2.87-18.49-.55-1.54-21.98-19.16-23.12-18.68-1.65,9.57-2.92,21.91.62,31.13,3.76,9.78,10.5,19.27,18.57,25.93Zm50.79,90.2c5.62-1.66,16.08-2.58,20.73-6.08,4.15-3.12,4.85-12.32,6.27-17.34,1.99-6.99,4.8-12.07,1.59-18.87-2.45-5.18-5.13-10.09-7.24-15.49-7.13,19.31-14.12,38.22-21.35,57.78Zm-94.41-253.22c2.92.14,10.87-10.24,12.73-12.09,4.52-4.52,9.04-9.04,13.56-13.56,2.65-2.64,12.89-10.17,13.24-13.88.18-1.94-4.64-10.67-6.42-10.65-3.13.03-10.02,9.95-12.38,12.3-4.36,4.33-8.94,8.43-13.32,12.75-3.55,3.5-11.3,8.59-13.17,13.09-.79,1.89,2.97,11.72,5.76,12.05Zm76.54,48.78c4.21,14.68,9.75,28.15,18.93,40.19,2.77-7.55,5.45-14.79,8.05-22.06.31-.88-.09-1.55-1.13-2.1-8.85-4.72-17.49-9.81-25.84-16.02Zm4.2,161.56c-3.6,2.87-8.11,5.24-11.48,8.32-3.32,3.04-3.97,6.95-5.36,11.24-1.04,3.19-3.45,7.27-2.52,10.58.75,2.69,4.58,6.29,6.23,8.59,4.47-13.2,8.8-25.97,13.13-38.74Zm61.19,27.89c-4.85-6.38-9.65-12.62-14.22-19.56-.88,3.01-9.1,24.65-7.14,26.39,2.22,1.97,18.58-5.75,21.36-6.83Zm-42.85-341.38c-.71-5.89-5.45.15-8.08,2.28-1.37,1.1-6.97,4.23-7.49,6.06-.8,2.83.39,2.91,2.52,5.11,3.57,3.69,6.44,7.38,10.35,2.36,3.38-4.33,1.76-10.6,2.71-15.81Zm470.79,262.39c-.89,2.37-7.1,14.1-5.82,16.44.99,1.82,11.29.21,12.93-.2,10.27-2.6-2.65-12.95-7.11-16.24ZM41.28,217.45c-3.21-.51-9.56.99-9.13,4.29.35,2.64,8.23,7.72,10.74,7.82,8.51.34,7.55-12.99-1.62-12.11Zm590.04,328.51c.02-2.31-.85-9.05-2.76-10.77-2.39-2.14-7.84.14-10.64,1.5,3.7,4.18,9.01,6.07,13.4,9.26Zm-373.41-207.49c-1.26-4.74-1.77-8.93-2.22-13.18-2.33,1.65-4.84,2.33-4.54,5.01.21,1.88,5.49,6.62,6.75,8.17Z"/>
  <path class="cls-1" d="m750.5,361.04c-3.71,2.56-5.78,9.78-7.85,13.67-2.75,5.15-5.45,10.33-7.98,15.6-2.53,5.26-4.91,10.59-7.02,16.04-1.48,3.81-2.39,12.54-5.35,15.37-5.37-4.75-11.15-9.15-17.36-12.73-2.52-1.45-9.94-3.36-11.53-5.48-1.66-2.21-1.05-2.63-.46-5.53,3.12-15.5,6.99-31.2,10.76-46.56,3.7-15.09,9.62-29.55,17.96-42.68,6.36-10.02,16.92-24.66,28.84-28.48v80.78Z"/>
  <path class="cls-1" d="m.5,582.95c8.49,12.31,16.42,24.08,28.18,33.64,10.38,8.44,27.01,17.96,41,16.66,4.08-.38,2.93-.21,5.14-3.81,1.19-1.95,1.22-5.88,3.82-5.91,5.36-.06,8.86,11.6,8.77,15.34-.35,14.69-17.96,22.57-30.16,25.37.87-5.76.55-11.43.31-17.14-2.48,12.19-5.99,35.12-22.94,34.04-8.23-.52-11.21-6.76-14.41-13.38-2.1-4.36-.46-3.43-5.35-2.8-4.92.64-9.34,1.47-14.36,1.25v-83.28Z"/>
  <path class="cls-11" d="m203.46,751c2.4-5.6,19.24-4.23,17.95,0h-17.95Z"/>
  <path class="cls-9" d="m110,.88c-.03-.18-.13-.3-.29-.38h3.99c-1.2.45-2.44.53-3.7.38Z"/>
  <path class="cls-9" d="m122.88.89c-1.27.23-2.5.01-3.7-.39,1.33,0,2.66,0,3.99,0-.1.13-.19.26-.29.39Z"/>
  <path class="cls-11" d="m205.94,712.02c-.92-17.95,27.32-17.89,27.44-.14.12,17.98-27.45,18.42-27.44.14Zm13.3,10.03c9.86.05,12.42-15.04,3.92-19.23-13.03-6.42-17.25,19.17-3.92,19.23Z"/>
  <path class="cls-7" d="m77.83,104.18c-3.75-10.01-9.13-18.61-11.44-29.26-2.4-11.12-2.89-22.29.43-33.28,6.06-20.05,24.36-33.78,45.1-35.1,19.42-1.24,41.52,7.48,50.05,25.95,4.8,10.39,5.07,22.48,4.6,33.71-.24,5.75-.77,11.52-1.65,17.2-.9,5.85-3.85,12.44-3.85,18.24,22.44-8.64,48.53-4.92,63.15,15.49,14.1,19.69,12.78,46.19,4.99,68.02,22.2-9.87,48.21-8.88,68.3,5.96,8.71,6.44,14.64,16.01,17.13,26.51,1.54,6.49.78,12.85,1.52,19.37.66,5.91,1.06,2.87,7.46,3.43,12.47,1.09,19.28,10.66,22.54,21.97,2.22,7.71.97,5.33-5.14,7.94-6.04,2.58-4.03,1.44-9.27-3.05-9.03-7.73-19.34-6.48-27.96,1.13-5.33,4.69-4.21,6.69-10.18,1.59-4.99-4.26-10.04-8.45-15.11-12.63-5.96,4.85-9.17,15.73-12.19,22.49-4.33,9.67-6.96,18.49-15.04,25.57-2.97,2.6-6,5.13-8.99,7.7-3.96,3.41-4.03,4.64-8.43,3.11-9.19-3.19-16.41-7.14-26.4-3.29-7.22,2.79-13.05,8.75-16.2,15.75-1.61,3.57-2.58,7.46-2.98,11.34-.28,2.69-.26,5.31.02,8,.28,2.71,2.39,6.95,1.93,9.38-1.06,5.58-12.17,12.94-16.44,17.11-7.19,7.02-13.91,15.96-21.79,22.14-3.94,3.09-2.2,2.34-6.56-.56-3.24-2.15-6.72-3.53-10.58-4.01-8.11-1-16.8,1.57-22.61,7.4-12.1,12.12-13.07,33.97-6.61,48.99,3.15,7.33,7.99,13.98,14.78,18.32,8.23,5.26,15.18,4.17,24.15,5.14,4.14.45,4.24,2.36,6.56,6.44,2.58,4.53,2.61,3.92.08,8.56-2.62,4.79-1.92,4.84-6.94,2.59-5.05-2.26-10.01-4.64-15.21-6.57-10.4-3.87-21.17-6.9-32.22-8.11-8.52-.93-10.91-2.31-15.03-10.4-9.35-18.34-12.24-40.22,2.02-56.93-14.5-3.07-27.29-6.19-38.57-16.63-8.84-8.17-14.39-19.04-17.17-30.67-3.14-13.12-3.63-28.1.47-41.09,4.13-13.11,11.98-20.7,23.73-26.95-11.76-6.01-21.91-13.85-27.66-26.1-3.09-6.58-4.72-13.99-4.59-21.27.07-4.12,1.64-19.54,6.93-20.67,2.88-.61,8.73,6.85,12.45,8.36,6.09,2.47,11.97.37,13.4-6.63,1.27-6.23-2.06-11.09-8.09-12.45-5.47-1.23-13.33,4.21-16.96,2.17-4.05-2.28-6.94-15.53-8.02-19.63-1.91-7.29-3.11-14.83-3.64-22.35-1.07-15.26,1.69-30.22,7.09-44.49,4.47-11.82,11.27-25.87,21.44-33.82,12.44-9.73,23.96.52,32.89,9.27.23.15.45.31.68.46.2-.41.13-.72-.34-.88Z"/>
  <path class="cls-7" d="m616.39,308.22c5.22-.75,12.01-6.38,16.9-5.37,4.42.91,9.92,7.15,12.84,10.25,9.23,9.8,14.37,22.17,14.31,35.65-.06,13.83-4.52,27.19-9.8,39.82-5.2,12.42-13.45,21.52-20.01,32.9-10.07-11.31-27.49-15.13-41.19-8.4-13.54,6.66-20.33,22.3-22.03,36.59-.94,7.88-.41,16.05,1.82,23.68,1.92,6.56,6.19,11.31,8.93,17.3,1.8,3.93,2.32,2.52-.8,5.89-2.48,2.69-7.08,4.38-10.48,5.41-8.33,2.53-17.74,2.24-26.21.62,6.36-14.15,11.24-27.34,9.28-43.19-.93-7.53-4.38-14.1-5.86-21.31-1.29-6.28,3.37-6.52,6.77-12.06,7.05-11.45,3.78-27.53-2.72-38.46-8.24-13.86-22.14-13.31-36.27-9.48,8.82-17.44,12.41-36.53,11.65-55.99-.14-3.67.2-12.58-2.01-15.54-2.41-3.22-3.69-1.23-7.83.93-8.37,4.35-18.23,11.4-27.36,13.68-2.15-13.02-9.4-44.13-29.53-32.73-2.71,1.54-4.75,5.6-7.68,6.38-2.47.65-6.21-1.27-9.07-.75-6.01,1.1-12.22,6.2-12.84,12.68-8.92-9.35-17.9-18.42-29.1-25.1-11.86-7.07-22.51-8.89-36.06-8.46,1.93-7.57,7.21-13.96,13.38-18.53,6.45-4.78,13.62-5.6,20.46-8.95,3.32-1.62,2.25-.26,2.45-4.08.19-3.69-.42-7.34.12-11.15,1.1-7.86,3.84-15.2,8.84-21.44,21.22-26.46,65.68-20.58,93.41-10.08-9.46-23.89-14.73-59.61,6.01-79.23,10.38-9.82,25.56-15.17,39.7-11.86,7.14,1.67,13.91,5.13,19.86,9.35,4.98,3.54,8.47,8.65,13.39,12.13-5.49-17.99-7.06-44.65,5.5-60.24,11.12-13.8,33.35-13.81,48.65-8.16,17.28,6.39,33.28,23.08,31.77,42.54-1.66,21.45-16.98,33.98-30.35,48.52,15.67,6.7,28.51,14.99,36.73,30.48,8.2,15.44,9.9,33.81,6.68,50.82-3.16,16.71-11.66,30.37-23.01,42.79-5.89,6.45-12.41,12.35-19.25,17.78-5.88,4.66-15.69,8.5-20.44,14-.33.2-.66.4-.99.6.53.32,1.03.43,1.39-.24Z"/>
  <path class="cls-1" d="m206.17,530.21c-14.43-8.13-26.58-20.56-36.92-33.33-5.38-6.65-10.23-13.67-14.67-20.97-1.82-3-3.45-4.25-1.9-7.17,1.64-3.1,5.11-4.53,6.63-8.38-30.36,22.92-60.09-11.45-52.06-42.87,3.29-12.89,13.88-24.28,28.28-20.5,14.1,3.7,20.73,21.4,24.54,33.8.04-4.07-.69-7.9-1.44-11.87-1.07-5.69-.44-5.88,3.74-10.1,7.22-7.28,14.64-14.34,21.96-21.52,3.22-3.16,6.38-6.38,9.58-9.57,4.4-4.4,4.18-5.16,8.53-1.48,2.98,2.52,6.19,4.51,9.26,6.86,4.32,3.3,3.22,3.84,4.27,9.34,1.5,7.86,5.49,13.19,5.94,21.42.55,9.97,1.76,19.89,3.69,29.68,3.6,18.28,8.89,36.74,19.11,52.52,19.64,30.31,50.88,51.21,87.19,53.86,36.42,2.66,71.42-13.83,100.87-33.59,16.21-10.88,31.4-23.17,45.93-36.18,6.34-5.68,12.67-14.55,19.85-19.03,3.58-2.23,5.3-1.47,9.63-2.05,4.07-.54,8.09-2.63,11.48-4.9,3.14-2.11,5.9-4.64,7.91-7.87.93-1.5,1.75-5.76,2.86-6.9,1.42-1.47,3.38-2.29,5.54-2.29,4.18-.01,3.13-.66,5.07,4.59,6.06,16.4,5.72,34.02-1.16,50.14-14.65,34.32-53.5,49.4-86.66,59.93-18.64,5.92-37.83,10.59-57.12,13.75-8.35,1.37-16.72,2.67-25.14,3.54-8.23.85-18.28,3.09-26.51,1.84-6.04-.91-3.84-2.26-3.44-8.54.2-3.12,1.37-9.65-1.06-11.28-1.77-1.19-11.96,1.89-14.18,2.3-5.6,1.04-11.19,2.19-16.69,3.68-4.42,1.2-8.96,2.52-13.15,4.38-3.06,1.36-5.94,4.2-9.07,4.11-4.61-.13-11.24-4.47-15.87-5.79-3.29-.94-9.5-.33-12.07-2.29-2.34-1.78-3.29-7.72-4.24-10.24-1.8-4.77-3.76-9.47-5.96-14.07-3.96-8.3-8.56-16.77-14.67-23.7-4.61-5.23-12.09-12.92-17.73-5.94-5.67,7.02-7.95,18.16-10.13,26.7Zm-53-90.43c-2.05-5.66-6.41-8.67-11.91-10.55-3.06-1.05-13.96-3.85-16.55-.37-4,5.38,8.15,3.5,11.54,4.35,5.84,1.47,11.36,4.3,16.92,6.56Z"/>
  <path class="cls-7" d="m228.01,371.39c-2.33.91-4.83,1.96-6.77,3.61-1.52,1.3-2.97,5-4.84,5.46-3.13.78-9.88-6.12-11.84-8.05-8.32-8.17-13.46-19.76-12.31-31.53,1.03-10.56,6.96-20.71,17.45-24.23,11.26-3.78,22.5,2.33,30.96,9.44,19,15.96,24.98,40.87,43.25,57.2,19.89,17.79,44.33,22.15,69.96,17.64-10.41,40.89,79.95,50.77,83.08,11.07,17.25,8.26,37.81,2.42,52.71-8.14,6.94-4.92,11.56-11.14,17.08-17.4,5.4-6.12,17-8.2,24.93-6.68,14.86,2.85,21.17,24.38,18.34,37.39-1.45,6.67-5.81,11.53-11.85,14.55-9.04,4.52-6.48-4.61-14.52-6.5,3.11,7.05,4.56,13.89-.57,20.36-4.25,5.35-11.37,9.23-18.23,9.28-7.91.05-14.02-4.7-19.02-10.37-1.51-1.71-1.39-3.51-3.28-3-1.66.44-5.96,8.82-7.35,10.4-10.61,12.12-25.27,18.82-39.79,8.56-1.94-1.37-5.36-6.62-7.26-7.23-2.2-.7-3.3,1.08-5.39,2.69-6.49,5.03-13.82,10.16-21.77,12.59-7.82,2.39-14.01-.44-19.78-5.78-2.68-2.48-4.65-6.45-7.35-8.69-3.88-3.21-3.92-1.22-8.82.86-12.71,5.39-32.12,4.79-42.18-5.63-2.14-2.22-3.83-4.86-5.06-7.68-.8-1.84-1.11-6.32-2.19-7.6-2.11-2.5-.02-1.76-3.91-.69-4.3,1.18-8.1,3.73-12.63,4.64-14.96,2.99-28.42-1.48-34.8-15.85-1.05-2.37-1.5-9.49-2.92-10.8-2.13-1.95-4.69.17-7.98.84-6.9,1.42-14.48,1-20.79-2.35-14.08-7.47-16.71-27.5-4.09-37.71-.15-.23-.3-.45-.44-.68Z"/>
  <path class="cls-1" d="m580.27,446.68c-7.27,15.02,2.82,35.9,16.48,43.81,7.45,4.31,15.78,4,23.92,2.23,6.23-1.36,4.81.43,6.68,6.23,1.35,4.17,3.29,8.12,5.72,11.76,9.8,14.7,28.01,20.81,42.18,8.25,6.33-5.62,10.17-13.09,11.53-21.4.91-5.56,2.55-21.85-2.78-25.88,4.01,8.68.46,23.73-3.09,32-3.47,8.06-9.34,15.24-18.08,17.7-20.38,5.76-32.33-19.91-34.19-35.96-2.28-19.71,8.29-38.62,28.3-42.89,10.23-2.19,21.38-1.27,31.33,1.93,11.29,3.63,15.5,9.39,21.91,18.42-1.69-17.14-19.28-23.3-34.1-25.09-18.95-2.28-32.25,3.53-45.04,17.02-3.16-22.97,5.54-47.24,30.71-51.46,23.03-3.86,47.13,9.44,61.69,26.55,14.97,17.6,20.89,38.42,6.37,57.95-14.37,19.32-34.01,35.36-44.88,57.17-1.57,3.15-2.34,9.97-5.37,11.85-2.8,1.73-9.66-.62-12.7-1.01-7.42-.95-27.11-2.3-31.05-9.03-1.73-2.96-1.37-8.91-2.91-12.37-2.25-5.06-5.79-8.86-10.14-12.2-9.2-7.06-19.3-12.82-28.16-20.38-17.47-14.89-27.62-35.22-21.52-58.36,5.88-22.3,28.69-37.9,50.2-22.85,6.27,4.39,4.98,6.69,3.79,13.83-1.04,6.26-1.2,12.97-.36,19.26.94,7.01-.37,10.18-1.61,17.17-.58,3.29.99,13-.48,15.55-2.58,4.49-14.25,3.95-18.41,3.07-5.73-1.21-10.62-4.39-14.52-8.7-8.3-9.16-11.39-22.14-11.4-34.19Z"/>
  <path class="cls-8" d="m6.01,550.97c-.22-5.39,5.86-13.23,8.4-17.83,1.8-3.25,3.55-6.6,5.67-9.65,3.09-4.43,3.02-3.96,7.18-1.33,13.51,8.56,29.11,8.42,43.97,3.3,14.94-5.14,28.55-14.32,39.63-25.51,3.09-3.12,8.37-12.73,12.28-13.67,3.14-.76,20.95,6.25,22.7,8.96,2.1,3.25-2.79,15.52-3.14,20.03-.67,8.54.49,17.07,3.46,25.11.84,2.28,3.63,6.17,3.9,8.63.33,3.04-2.27,5.22-4.05,7.75-2.91,4.15-7.88,15.7-12.56,17.19-2.13.68-7.99-1.63-10.56-1.87-4.12-.38-8.51-.4-12.6.27-6.64,1.09-12.23,4.06-16.26,9.51-4.24,5.75-6.2,13.08-7.55,20-1.31,6.73,1.74,14.69-6.79,13.47-32.59-4.68-67.78-30.05-73.68-64.37Z"/>
  <path class="cls-8" d="m200.96,679.83c24.85-4.83,49.43-10.3,73.66-17.7,6.65-2.03,13.37-4.01,19.91-6.38,1.23-.45,4.29-2.21,5.84-2.06,1.16.11,3.85,2.08,4.1,2.08,3.18.03,3.98-3.51,7.11-5.74,3.94-2.81,9.25-4.13,13.67-5.94,47.96-19.6,93.04-46.83,132.86-79.96,8.41-7,15.15-14.64,25.3-18.94,5.02-2.12,10.02-4.27,14.9-6.69,3.98-1.98,14.13-10.22,16.92-7.3,2.58,2.69.46,12-.51,14.91-1.87,5.62-5.51,10.7-9.46,15.04-7.99,8.78-18.54,15.24-28.88,20.86-10.41,5.66-21.29,9.64-32.27,13.98-5.44,2.15-5.08,3.74-6.77,9.46-1.76,5.97-4.2,11.72-7.27,17.13-11.99,21.14-32.74,34.57-54.9,43.26-26.89,10.55-56.3,15.48-84.91,18.57-29.43,3.18-60.44,2.42-89.3-4.57Z"/>
  <path class="cls-6" d="m258.31,316.97c-1.27-12.78,5.03-25.04,9.92-36.44,2.36-5.49,4.74-11.28,8.55-15.97,4.71-5.81,8.04.51,12.2,4.84,17.33,18.1,37.66,33.81,56.25,50.61,10.01,9.05,20.28,17.81,30.24,26.9,5.69,5.19,17.99,21.04,26.12,19.26,4.82-1.06,11.33-5.9,15.77-8.19,6.33-3.27,12.65-6.55,19.03-9.7,12.67-6.27,25.31-12.59,38-18.8,12.1-5.92,24.39-11.43,36.64-17.02,7.88-3.6,8.34-4.05,9.28,4.84.82,7.7.9,15.13.12,22.85-2.56,25.33-13.82,48.44-35.09,62.99-8.68,5.94-18.91,10.03-29.54,9.36-13.73-.87-20.29-5.43-30.13-14.42-4.58-4.18-9.5-7.96-14.24-11.96-3.92-3.31-7.82-9.48-12.12-11.94-3.73-2.13-4.93-.76-8.18,1.37-5.5,3.61-10.78,7.61-16.36,11.15-11.69,7.42-22.53,12.86-36.61,13.62-13.21.71-27.38-2.42-39.01-8.79-25.65-14.05-40.86-46.39-40.86-74.54Zm16.89.97c-1.3,12.3,4.12,26.74,9.35,37.57,5.48,11.34,15.31,22.86,27.14,28.02,10.68,4.65,28.15,3.46,39.14.27,5.25-1.52,26.79-10.88,26.6-17.24-.09-3.13-8.8-8.65-11.03-10.62-4.66-4.1-9.27-8.25-13.96-12.31-11.37-9.85-22.71-19.72-33.98-29.68-5.79-5.11-11.62-10.18-17.44-15.25-2.1-1.83-14.61-15.46-17.51-15.08-7.39.97-7.69,27.95-8.31,34.32Zm171.41,83.58c11.27-2.24,22.56-3.07,32.4-9.78,8.79-6,16.43-15.5,20.91-25.08,5.1-10.93,7.44-22.27,9.81-34.02.7-3.45,2.36-6.52-.05-7.35-2.07-.72-14.22,6.28-16.97,7.46-24.83,10.61-48.78,23.25-73.43,34.27-2.34,1.05-10.1,3.23-10.28,5.98-.17,2.72,8.68,10.41,10.45,12.44,7.51,8.63,16.43,12.75,27.16,16.08Z"/>
  <path class="cls-3" d="m352.92,476.59c-6.73.57-18.23,4.24-24.13,1.62-3.39-1.5-6.51-5.64-9.49-7.96-4.04-3.15-8.21-6.14-12.58-8.82-13.82-8.47-33.67-17.39-50.02-11.28-3.08,1.15-6.37,2.99-8.54,5.52-3.58,4.18-1.25,5.32-5.96,4.82-11.74-1.26-11.09-13.15-12.43-22.16-.47-3.16-5.14-24.01-2.6-26.07,1.72-1.4,7.47,1.68,10.18,2.23,4.37.9,9.47,1.43,13.93.79,2.14-.31,5.07-2.25,6.71-.78,1.68,1.5,2.3,8.86,3.42,11.12,3.8,7.64,9.98,13.13,18.18,15.59,8.11,2.43,16.52,1.63,24.49-.91,3.5-1.12,6.33-3.71,8.87-1.35,1.72,1.6,2.71,8.47,4.39,10.96,10.02,14.84,30.94,15.49,46.17,9.39,5.55-2.22,5.33-2.33,9.13,1.78,2.81,3.04,5.83,6.02,9.27,8.35,8.06,5.46,16.23,5.04,24.8.97,4.44-2.1,8.67-4.65,12.7-7.45,1.5-1.04,3.08-2.87,4.75-3.5,3.15-1.17,1.39-.87,4.21.48,3.75,1.8,6.59,5.78,10.55,7.66,4.35,2.06,8.97,3.05,13.8,2.58,9.68-.93,17.89-7.43,24.24-14.37,3.37-3.68,3.73-6.72,8.06-4.43.77.41,10.29,6.71,10.28,6.16.06,3.97-14.18,14.09-17.16,16.81-6.39,5.86-12.88,11.62-19.6,17.1-5.81,4.74-11.78,9.29-18.03,13.42-7.98,5.27-12.8,4.46-22.08,4.06-4.47-.19-8.92-.52-13.38-.82-2.7-.18-11.51.68-13.56-.93-3.34-2.61-.7-9.79-2.93-14.55-2.81-5.98-8.53-9.61-14.46-11.97-5.2-2.07-15.58-5.39-21.17-4.04Z"/>
  <path class="cls-9" d="m249.64,568.53c-6.03-11.98-14.95-19.93-27.4-23.73,9.46,6.55,17.38,15.64,23.34,25.46,3.64,5.99,2.18,7.04-4.18,7.72-5.97.64-11.45,2.1-17.07,4.24,5.17-.31,14.45-2.64,19.33-1.23,3.56,1.04,2.12.19,2.88,3.6.65,2.91-.13,6.6.46,9.73,1.16,6.11-.2,8.77-3.85,14.12-3.23,4.72-7.16,8.94-11.56,12.58-3.07,2.54-9.28,8.51-12.8,6.54-3.6-2.02-6.78-15.75-7.88-19.28-4.19-13.45-6.31-27.38-5.79-41.47.48-12.96,2.32-25.94,5.43-38.53,1.62-6.54,3.51-13.29,6.42-19.39,3.09-6.46,4.59-5.85,10.06-.89,8.92,8.09,14.66,19.93,19.5,30.76,2.33,5.21,5.19,10.83,6.66,16.36,1.56,5.89-1.49,7.65-3.54,13.4Z"/>
  <path class="cls-9" d="m292.76,605.11c-1.58-5.93-3.73-10.84-8.16-15.16,10.27-1.34,20.04-2.85,30.15-3.13-3.16-3.85-13.75-3.02-17.87-2.84-2,.09-16.32,3.18-17.47,2.07-1.94-1.87,6.28-12,7.82-13.58,3.42-3.51,7.59-5.98,12.05-7.91,10.22-4.43,21.64-6.7,32.52-8.78,5.12-.98,5.81-1.71,6.24,3.58.46,5.64-.97,11.99-1.9,17.52-2.1,12.51-5.11,24.82-9.51,36.73-4.21,11.38-9.58,22.24-16.48,32.24-4.12,5.97-4.39,6.77-8.74,1.23-4.05-5.16-7.86-10.59-11.43-16.1-6.06-9.35-13.73-20.46-13.14-32.05.21-4.21-.32-8.37,3.75-6.81,3.73,1.43,9.11,10.08,12.16,13Z"/>
  <path class="cls-8" d="m223.9,666.72c-21.88-9.95-43.3-32.87-53.47-54.36-5.83-12.32-9.36-26.92-7.17-40.54.41-2.53,2.3-6.2,1.67-8.75-.55-2.22-3.44-4.54-4.78-6.3-3.95-5.19-7.2-10.9-9.37-17.06-4.44-12.62-4.38-26.54-.37-39.26,1.04-3.29,3.56-13.94,7.4-12.19,1.74.79,4.04,5.76,5.27,7.36,2.5,3.26,5.08,6.53,7.76,9.64,4.42,5.14,6.95,6.76,6.43,13.82-.49,6.65-1.29,13.14-1.05,19.84.52,14.49,2.34,28.88,5.83,42.96,3.94,15.84,9.79,31.13,17.22,45.65,3.63,7.08,7.62,13.97,11.94,20.65,2.3,3.56,4.7,7.06,7.18,10.5,1.49,2.08,5.2,5.37,5.5,8.04h0Z"/>
  <path class="cls-10" d="m332.83,487.81c-.53-1.96-2.02-3.28-3.12-5.01,4.52-3.41,14.54-3.21,20-3.24,6.8-.03,14.02.53,20.53,2.56,5.3,1.65,10.59,4.28,13.82,8.96,1.61,2.33,6.25,13.33,2.66,15.81-3.35,2.32-15.7-1.52-19.5-2.06-7.17-1.02-14.3-2.3-21.39-3.76-15.09-3.09-29.99-7.16-44.54-12.21-14.41-5.01-28.6-11.01-42.06-18.2-3.26-1.74-12.75-5.16-12.13-8.89.77-4.59,10.33-7.83,14.12-8.62,27.58-5.72,53.31,17.28,71.61,34.65Zm1.61,1.08c-.29-.2-.46-.91-.87-.5-.35.35.17.64.52.82.1.41.46.6.71.36.35-.34-.22-.45-.36-.68Z"/>
  <path class="cls-5" d="m461.65,553.86c-8.61,7.83-17.28,15.65-26.66,22.56-9.55,7.04-21.68,11.6-32.71,15.76-5.82,2.2-69.41,20.05-70.02,15.86-.67-4.57,3.85-13.95,4.87-18.56.97-4.39.64-12.43,4.41-14.55,3.57-2,12.93-.26,17.26-.62,7.01-.58,14.05-1.27,21.03-2.17,27.87-3.6,54.8-10.77,81.81-18.3Z"/>
  <path class="cls-1" d="m395.41,316.69c3.53,9.53,1.93,18.97-2.25,27.96-1.17,2.51-2.84,8.43-5.68,7.73-3.12-.77-2.52-4.19-2.31-6.2.88-8.59,5.08-15.82,1.69-24.68-3.21-8.38-11.87-12.85-20.39-9.38,5.69-12.09,4.28-23.63-1.28-35.2,15.26-1.63,29.71,6.54,41.23,15.73,5.59,4.46,10.81,9.43,15.69,14.66,5.04,5.42,4.79,11.44,4.31,18.73-5.93,2.08-10.58.35-12.7,7.67-1.88,6.49,1.48,12.85,1.92,19.13.23,3.31.87,4.77-3.48,5.79-1.9.44-1.9,1.43-3.55.09-3.76-3.06-3.49-13.98-6.04-18.02-.87,4.36-.53,8.8.84,13.01.62,1.91,3.75,6.23,3.04,7.75-2.72,5.75-9.68.8-11.76-1.94-4.38-5.78,3.49-12.01,5.44-18.25,2.75-8.76.98-17.55-4.36-24.94-.2-.33-.4-.66-.61-.99-.32.53-.41,1.01.25,1.36Z"/>
  <path class="cls-8" d="m81.57,479.18c9.32.1,18.56,1.19,27.67,3.13,1.42.3,5.53.44,6.6,1.54,1.88,1.92,1.01,1.07.13,3.81-1.12,3.51-5.8,7.24-8.4,9.82-13.76,13.68-32.44,25.25-52.05,27.25-8.18.84-21.12.13-27.65-5.75-5.31-4.79,3.37-11.41,7.11-15.74,11.9-13.8,27.63-24.61,46.59-24.06Z"/>
  <path class="cls-1" d="m398.42,429.82c-12.51.59-36.59-4.08-39.09-19.64-1.25-7.77,4.53-13.38,10.5-17.15,4.23-2.67,8.75-4.84,13.02-7.42,3.58-2.17,7.53-6.55,11.32-7.96,3.93-1.46,3.86.16,7.79,3.38,3.84,3.15,7.85,6.08,11.79,9.08,5.52,4.2,14.81,9.73,16.78,16.83,4.81,17.34-19.63,24.21-32.12,22.89Z"/>
  <path class="cls-4" d="m338.54,546.04c-9.21.06-18.41-1.11-27.3-3.52-3.74-1.01-8.78-1.95-12.06-4.08-4.11-2.67-2.51-4.91-1.45-9.62,2.04-9.04,4.22-18.07,6.14-27.14,1.84-8.71,6.08-4.67,13.45-2.56,8.81,2.51,17.72,4.67,26.71,6.45,4.5.89,9.02,1.79,13.56,2.47,4.54.68,5.39-.06,5.55,4.17.29,7.95-4.1,19.56-6.2,27.36-1.3,4.81-1.39,5.15-6.45,5.81-3.61.47-8.35,1.31-11.94.66Z"/>
  <path class="cls-7" d="m332.1,287.14c5.26-10.28,18.35-20.93,28.45-9.06,3.96,4.66,5.07,11.62,5.27,17.52.15,4.48-.38,8.94-1.24,13.32-.61,3.11-2.77,7.43-2.46,10.53,4.54-6.57,14.96-5.58,19.4.55,2.93,4.04,2.82,9.93,2.23,14.62-.18,1.41-1.06,9.79-2.74,10.32-3.34,1.07-14.54-12.14-17.29-14.58-7.44-6.61-14.92-13.19-22.43-19.72-8.04-6.99-16.26-13.77-24.32-20.73-3.67-3.17-7.32-6.36-11-9.52-3.92-3.36-4.37-2.31-2.29-6.28,4.02-7.66,15.11-9.87,22.02-5.98,9.54,5.36,7.08,9.98,6.4,19Z"/>
  <path class="cls-7" d="m434.61,335.02c-5.11-9.3-7.23-18.74-2.79-29.29,5.03-11.95,18.36-5.95,26.52-1.17-.53-2.73-4.51-4.36-4.63-6.73-.14-2.64,3.94-5.38,5.97-6.27,6.71-2.95,12.26,1.04,15.72,6.62,2.93,4.73,8.94,18.38,6.73,23.97-2.04,5.16-15.7,9.06-20.72,11.61-8.09,4.11-16.13,8.32-24.25,12.38-4.02,2.01-8,4.21-12.09,6.06-4.69,2.12-4.51,2.66-5.95-2.38-1.31-4.59-4.32-15.27.85-18.55,4.54-2.89,10.98,1.49,14.66,3.75Zm23.98-30.55c-.12.13-.22.23-.31.34.33.42.63.43.9.05-.2-.13-.39-.26-.59-.39Z"/>
  <path class="cls-5" d="m615.35,537.93c17.89,16.05,39.64,21.75,63.29,23.27,13.87.89,28.19.63,41.82-2.32,2-.43,7.75-3.32,8.91-1.79.93,1.23-5.91,14.19-6.51,15.53-1.32,2.96-3.86,12.54-6.5,14.07-3.44,2-13.72-1.59-17.71-2.3-12.13-2.16-24.23-5.06-35.92-8.96-11.89-3.97-23.37-9.19-34.3-15.32-8.6-4.82-24.88-10.98-13.07-22.19Z"/>
  <path class="cls-8" d="m592.01,690.51c14.81-8.87,31.7-14.65,48.73-17.25,7.91-1.21,16.06-1.86,24.03-1.16,4.58.4,20.01.78,17.93,6.26-2.17,5.71-13.39,13.14-18.36,16.43-6.68,4.43-14.06,7.2-22.09,7.64-15.82.86-36.31-4.23-50.24-11.92Z"/>
  <path class="cls-4" d="m301.79,495.15c-1.75,6.68-3.55,13.33-5.41,19.98-1.02,3.65-2.44,16.62-5.23,18.32-2.85,1.73-13.03-7.45-15.4-9.34-5.58-4.43-10.62-9.35-15.39-14.64-5.63-6.25-3.2-8.67-.54-16.24,1.12-3.19,2.11-6.46,3.31-9.62,1.79-4.69.72-4.29,4.65-3.38,3.49.81,33.61,15.64,34.01,14.92Z"/>
  <path class="cls-5" d="m270.21,605.94c-5.43,14.97-11.06,29.86-16.53,44.82-1.23,3.35-2.42,10.77-4.85,13.31-2.05,2.14-4.31,2.3-7.32,3.03-5.18,1.27-11.08,4.31-13.65-2.62-1.92-5.19,3.5-14.57,5.31-19.93,2.98-8.87,5.21-18.77,9.24-27.21,1.54-3.22,6.93-14.25,9.62-15.66.75-.39,17.82,3.53,18.18,4.26Z"/>
  <path class="cls-5" d="m316.31,642.55c2.32-4.58,5.16-8.86,7.43-13.46,2.1-4.25,3.49-12.31,6.54-15.72,3.18-3.55,8.42-2.84,13.14-3.49,5.64-.78,11.24-1.8,16.82-2.95,10.46-2.14,20.8-4.67,30.98-7.91,2.66-.85,24.34-10.45,25.67-9.18-16.32,10.62-32.61,21.05-49.84,30.16-8.29,4.38-16.7,8.52-25.23,12.41-7.46,3.4-17,9.63-25.15,10.41-.09-.13-.21-.22-.36-.26Z"/>
  <path class="cls-4" d="m430.55,512.84c-12.72,8.53-26.03,16.38-40.21,22.23-7.03,2.9-14.17,5.2-21.55,7.01-1.52.37-6.63,2.66-7.95,1.14-1.16-1.33,1.65-8.43,2.03-10.16.86-3.87,1.88-20.63,4.91-22.67,3.22-2.17,14.33.76,18.69,1.18,7.49.74,14.87.87,22.39,1.18,4.12.17,8.27.52,12.4.46,2.63-.04,6.7-1.09,9.29-.37Z"/>
  <path class="cls-5" d="m4.61,560.59c6.41,15.31,14.89,28.34,27.57,38.5,12.55,10.06,26.77,16.15,42.61,19.56-1.33,3.28-2.65,6.61-4.05,9.91-.4.93-1.37.86-2.19.75-14.39-1.92-27.16-7.48-38.32-16.83-10.53-8.83-18.65-19.52-25.78-31.21-4.32-7.09-1.65-13.4.17-20.67Z"/>
  <path class="cls-5" d="m220.46,633.27c-1.27,4.95-2.93,9.39-4.63,14.36-18.73-28.74-30.78-59.39-34.23-93.23,4.16,6.83,8.2,13.82,14.04,19.4,2.29,2.19,4.74,3.4,5.83,6.36,1.47,3.98.92,10.15,1.69,14.38.89,4.91,11.2,43.28,17.31,38.73Z"/>
  <path class="cls-9" d="m284.72,569.19c-4.12,3.93-7.14,8.83-9.07,14.17-1.65,4.55-1.19,10.17-2.87,14.46-1.15,2.95.34,1.95-2.82,3.08-1.87.67-5.15-.23-7.14-.58-5.41-.96-10.57-2.34-12.01-8.13-1.56-6.26.23-24.47,6.08-28.95,6.41-4.91,21.66,3.28,27.84,5.95Z"/>
  <path class="cls-5" d="m200.86,574.36c-8.07-6.66-14.81-16.15-18.57-25.93-3.54-9.22-2.28-21.56-.62-31.13,1.15-.48,22.58,17.14,23.12,18.68,1.28,3.6-2.42,14.34-2.87,18.49-.71,6.63-.52,13.26-1.07,19.89Z"/>
  <path class="cls-5" d="m251.66,664.56c7.23-19.56,14.21-38.46,21.35-57.78,2.11,5.39,4.79,10.31,7.24,15.49,3.21,6.8.4,11.88-1.59,18.87-1.43,5.02-2.12,14.21-6.27,17.34-4.65,3.5-15.11,4.42-20.73,6.08Z"/>
  <path class="cls-6" d="m157.25,411.34c-2.79-.33-6.55-10.16-5.76-12.05,1.87-4.5,9.62-9.59,13.17-13.09,4.38-4.32,8.96-8.41,13.32-12.75,2.36-2.35,9.25-12.27,12.38-12.3,1.78-.01,6.61,8.71,6.42,10.65-.35,3.71-10.59,11.24-13.24,13.88-4.52,4.52-9.04,9.04-13.56,13.56-1.86,1.86-9.81,12.23-12.73,12.1Z"/>
  <path class="cls-4" d="m233.78,460.12c8.36,6.21,16.99,11.3,25.84,16.02,1.04.55,1.44,1.22,1.13,2.1-2.6,7.27-5.28,14.51-8.05,22.06-9.18-12.04-14.72-25.5-18.93-40.19Z"/>
  <path class="cls-5" d="m685.59,555.05c.93-3.57,2.66-9.25,5.34-12.02,3.13-3.24,5.44-1.41,10.26-.19,9.01,2.3,19.15,4.68,27.27,9.34-9.78,3.28-20.12,4.45-30.38,4.93-3.48-.03-6.96-.15-10.44-.07-1.56.04-2.1-.58-2.06-2Z"/>
  <path class="cls-5" d="m237.99,621.68c-4.33,12.77-8.65,25.53-13.13,38.74-1.66-2.31-5.48-5.9-6.23-8.59-.93-3.32,1.49-7.39,2.52-10.58,1.39-4.3,2.04-8.21,5.36-11.24,3.36-3.08,7.88-5.45,11.48-8.32Z"/>
  <path class="cls-5" d="m299.18,649.57c-2.78,1.07-19.13,8.8-21.36,6.83-1.96-1.74,6.26-23.38,7.14-26.39,4.57,6.95,9.37,13.18,14.22,19.56Z"/>
  <path class="cls-6" d="m256.34,308.19c-.95,5.21.67,11.48-2.71,15.81-3.91,5.02-6.78,1.33-10.35-2.36-2.12-2.19-3.32-2.27-2.52-5.11.52-1.84,6.13-4.96,7.49-6.06,2.63-2.13,7.37-8.17,8.08-2.28Z"/>
  <path class="cls-8" d="m727.13,570.58c4.46,3.29,17.38,13.64,7.11,16.24-1.64.41-11.94,2.02-12.93.2-1.28-2.34,4.93-14.08,5.82-16.44Z"/>
  <path class="cls-7" d="m41.28,217.45c9.16-.87,10.13,12.46,1.62,12.11-2.51-.1-10.39-5.17-10.74-7.82-.44-3.3,5.92-4.81,9.13-4.29Z"/>
  <path class="cls-5" d="m631.32,545.96c-4.4-3.2-9.71-5.08-13.4-9.26,2.81-1.36,8.25-3.65,10.64-1.5,1.92,1.72,2.79,8.45,2.76,10.77Z"/>
  <path class="cls-7" d="m257.9,338.47c-1.26-1.54-6.54-6.29-6.75-8.17-.3-2.68,2.2-3.37,4.54-5.01.45,4.25.96,8.44,2.22,13.18Z"/>
  <path class="cls-9" d="m685.59,555.05c-.05,1.42.5,2.04,2.06,2,3.48-.08,6.96.03,10.44.07-3.98.97-8.02.37-12.03.32-1.48-.02-1.11-1.41-.47-2.39Z"/>
  <path class="cls-8" d="m223.91,666.72c.76.02.97.24.65.67-.22-.22-.44-.44-.65-.66,0,0,0,0,0,0Z"/>
  <path class="cls-5" d="m316.67,642.81c-.11.37-.47.57-.7.34-.37-.36.17-.42.34-.61.15.04.27.13.36.26Z"/>
  <path class="cls-8" d="m219.25,722.06c-13.33-.07-9.11-25.66,3.92-19.23,8.5,4.19,5.95,19.28-3.92,19.23Z"/>
  <path class="cls-11" d="m77.83,104.18c.47.16.54.46.34.88-.23-.15-.45-.31-.68-.46.11-.14.23-.28.34-.42Z"/>
  <path class="cls-11" d="m616.39,308.22c-.36.67-.86.57-1.39.24.33-.2.66-.4.99-.6l.4.35Z"/>
  <path class="cls-11" d="m153.17,439.78c-5.56-2.27-11.08-5.09-16.92-6.56-3.39-.85-15.54,1.03-11.54-4.35,2.59-3.48,13.49-.68,16.55.37,5.5,1.88,9.86,4.89,11.91,10.55Z"/>
  <path class="cls-11" d="m275.21,317.94c.62-6.37.92-33.36,8.31-34.32,2.9-.38,15.4,13.25,17.51,15.08,5.82,5.07,11.65,10.13,17.44,15.25,11.27,9.96,22.61,19.83,33.98,29.68,4.69,4.06,9.31,8.21,13.96,12.31,2.23,1.96,10.94,7.49,11.03,10.62.19,6.37-21.35,15.72-26.6,17.24-10.99,3.19-28.46,4.38-39.14-.27-11.83-5.15-21.66-16.67-27.14-28.02-5.23-10.83-10.65-25.27-9.35-37.57Zm98.79,49.38c-8.24-9.29-19.63-16.97-29.03-25.09-10.39-8.98-20.8-17.95-31.18-26.94-5.32-4.6-10.63-9.22-15.94-13.85-1.95-1.7-11.67-12.23-13.78-11.8-6.92,1.41-6.59,28.5-6.09,34.42,1.87,21.76,12.14,43.92,32.26,54.29,20.34,10.49,47.65,4.99,63.76-11.04Z"/>
  <path class="cls-11" d="m446.62,401.52c-10.73-3.34-19.65-7.45-27.16-16.08-1.77-2.03-10.62-9.73-10.45-12.44.18-2.75,7.93-4.93,10.28-5.98,24.65-11.02,48.61-23.66,73.43-34.27,2.75-1.17,14.89-8.17,16.97-7.46,2.41.83.75,3.89.05,7.35-2.37,11.74-4.71,23.08-9.81,34.02-4.47,9.59-12.11,19.08-20.91,25.08-9.84,6.71-21.13,7.55-32.4,9.78Zm58.82-70.86c-4.07,0-10.75,4.44-14.45,6.11-5.02,2.27-10.04,4.54-15.06,6.81-10.15,4.58-20.3,9.16-30.44,13.75-4.96,2.25-9.92,4.5-14.88,6.76-4.14,1.88-11.58,3.6-14.87,6.69-3.04,2.85-.89,3.98,1.78,7.81,2.6,3.73,5.43,7.25,9.11,9.97,16.95,12.54,38.6,9.22,54.01-4.29,15.15-13.28,22.21-34.17,24.81-53.61Z"/>
  <path class="cls-11" d="m334.44,488.89c.15.22.71.33.36.68-.25.25-.61.05-.71-.36.13-.09.25-.2.35-.32Z"/>
  <path class="cls-11" d="m334.09,489.21c-.35-.18-.86-.47-.52-.82.41-.41.58.29.87.5-.1.12-.22.23-.35.32Z"/>
  <path class="cls-11" d="m395.41,316.69c-.65-.35-.57-.84-.25-1.36.2.33.4.66.61.99-.12.13-.24.25-.36.38Z"/>
  <path class="cls-11" d="m458.58,304.47c.2.13.39.26.59.39-.27.38-.57.37-.9-.05.1-.11.19-.21.31-.34Z"/>
  <path class="cls-2" d="m374,367.32c-16.11,16.03-43.42,21.53-63.76,11.04-20.12-10.38-30.39-32.54-32.26-54.29-.51-5.92-.83-33.01,6.09-34.42,2.11-.43,11.83,10.09,13.78,11.8,5.3,4.63,10.61,9.24,15.94,13.85,10.39,8.99,20.79,17.96,31.18,26.94,9.4,8.12,20.79,15.8,29.03,25.09Z"/>
  <path class="cls-2" d="m505.43,330.67c-2.6,19.43-9.66,40.33-24.81,53.61-15.41,13.51-37.06,16.83-54.01,4.29-3.68-2.72-6.5-6.23-9.11-9.97-2.67-3.83-4.82-4.96-1.78-7.81,3.29-3.09,10.73-4.82,14.87-6.69,4.96-2.25,9.92-4.51,14.88-6.76,10.14-4.59,20.3-9.17,30.44-13.75,5.02-2.27,10.04-4.54,15.06-6.81,3.7-1.67,10.38-6.11,14.45-6.11Z"/>
</svg>