<?xml version="1.0" encoding="UTF-8"?>
<svg id="Layer_1" data-name="Layer 1" xmlns="http://www.w3.org/2000/svg" viewBox="0 0 13.57 12.48">
  <defs>
    <style>
      .cls-1 {
        fill: #fc7f7f;
        stroke-width: 0px;
      }
    </style>
  </defs>
  <path class="cls-1" d="m2.26,6.52c.1-.64.02-1.18.69-1.35-.74-.63-1.22-1.3-1.39-2.16-.19-.97-.07-1.86.8-2.43,1.11-.72,2.11-.76,3.03-.11.42.3.75.72,1.13,1.09.4-.17.83-.37,1.27-.53.82-.29,1.58-.11,2.22.45.96.85,1.43,1.92,1.26,3.21-.05.34-.17.76-.41.97-.58.52-.51,1.13-.44,1.84.88-.09,1.72-.18,2.57-.27.58-.06.59-.06.57.47-.03.82-.06,1.63-.12,2.44-.01.17-.12.37-.24.48-.6.48-1.22.93-1.82,1.41-.24.19-.41.19-.61-.05-.17-.2-.36-.38-.58-.62-.38.26-.76.5-1.12.78-.48.37-.98.45-1.55.24-1.4-.49-2.81-.97-4.23-1.42-.58-.18-.81-.55-.82-1.11,0-.41-.03-.82-.03-1.22,0-.29-.09-.46-.39-.49-.3-.03-.61-.1-.91-.06-.77.09-1.22-.3-1.14-1.06.02-.23.1-.47.21-.68.36-.69.95-.78,1.52-.26.13.12.26.24.52.47Zm8-2.05c0-1.28-.8-2.47-1.93-2.84-.94-.31-1.88.22-2.09,1.18-.28,1.29.42,2.75,1.63,3.3.31.14.7.21,1.03.16.96-.16,1.36-.74,1.37-1.8Zm-4.59-1.03c0-1.2-.75-2.32-1.81-2.7-.92-.33-1.78.15-1.96,1.1-.23,1.14.34,2.45,1.34,3.04.37.22.77.38,1.23.29.78-.16,1.2-.77,1.2-1.72Zm4.31,3.07c-.43.24-.73.42-1.05.58-.29.14-.4.35-.4.68,0,1.27-.02,2.54-.02,3.81,0,.12.04.25.07.46.49-.35.91-.65,1.33-.94-.93-1.08-.9-1.08-.94-2.11-.02-.48.12-.78.55-.96.39-.16.5-.47.46-.87-.02-.16,0-.33,0-.64Zm-8.34.39c-.02.71-.02.72.47.87,1.1.33,2.19.66,3.29.99.18.05.37.09.56.11.26.02.4-.1.4-.38,0-.24-.1-.32-.34-.34m3.39.61c0,.44-.03.84.01,1.24.03.24,1.19,1.29,1.54,1.46,0-.46,0-.89,0-1.32q.04-1.38-1.4-1.4s-.05,0-.15.03Zm3.69-1c-.53.34-1.04.64-1.52.98-.29.21-.25.5.08.67.44.22.9.41,1.44.65v-2.3Z"/>
  <path class="cls-1" d="m7.79,2.75c1.09.03,1.79,1.27,1.27,2.02-.15.23-.47.41-.74.47-.45.11-.93-.24-1.19-.75-.27-.53-.26-1.05.09-1.39.19-.19.46-.29.56-.35Z"/>
  <path class="cls-1" d="m4.79,3.13c0,.61-.39,1.03-.96,1.02-.61,0-1.22-.67-1.24-1.36-.02-.6.37-1.04.93-1.05.66-.02,1.26.64,1.26,1.39Z"/>
</svg>