<?xml version="1.0" encoding="UTF-8"?>
<svg id="Layer_1" data-name="Layer 1" xmlns="http://www.w3.org/2000/svg" viewBox="0 0 14 14">
  <defs>
    <style>
      .cls-1 {
        fill: #fff;
        stroke-width: 0px;
      }
    </style>
  </defs>
  <path class="cls-1" d="M4,0C1.79,0,0,1.79,0,4v6c0,2.21,1.79,4,4,4h6c2.21,0,4-1.79,4-4v-6c0-2.21-1.79-4-4-4h-6ZM2,6c0-.55.45-1,1-1s1,.45,1,1v2c0,.55-.45,1-1,1s-1-.45-1-1v-2ZM12,8c0,.55-.45,1-1,1s-1-.45-1-1v-2c0-.55.45-1,1-1s1,.45,1,1v2ZM9.83,11.83c-1.56,1.56-4.09,1.56-5.66,0-.38-.4-.37-1.03.02-1.41.39-.37,1-.37,1.39,0,.78.78,2.05.78,2.83,0,.4-.38,1.03-.37,1.41.02.37.39.37,1,0,1.39Z"/>
</svg>