<?xml version="1.0" encoding="utf-8"?>
<!-- Generator: Adobe Illustrator 28.1.0, SVG Export Plug-In . SVG Version: 6.00 Build 0)  -->
<svg version="1.1" id="Layer_3" xmlns="http://www.w3.org/2000/svg" xmlns:xlink="http://www.w3.org/1999/xlink" x="0px" y="0px"
	 viewBox="0 0 16 16" style="enable-background:new 0 0 16 16;" xml:space="preserve">
<style type="text/css">
	.st0{fill:#FFFFFF;}
</style>
<g>
	<path class="st0" d="M10.3,13.3h0.1c0.2,0,0.3,0,0.5,0C10.6,13.2,10.4,13.2,10.3,13.3z M5.5,2.6c0.2,0,0.3,0.1,0.4,0
		c-0.1,0-0.1,0-0.2,0C5.7,2.5,5.6,2.5,5.5,2.6z M2.7,10.6C2.7,10.6,2.7,10.6,2.7,10.6c0-0.2,0-0.3,0-0.3C2.7,10.4,2.7,10.5,2.7,10.6
		z"/>
	<path class="st0" d="M15,6.3c-1,0.3-2.1-0.8-1.3-1.6c1.3-0.9,0.4-2-0.5-2.8c-1.1-1.2-3,2.3-3.5-0.2C9.8,1,9.6,0,8.7,0
		C7.5-0.2,6.1,0.1,6.5,1.7C6.3,2.2,6.2,2.5,6,2.6c-0.1,0.1-0.3,0-0.4,0C4.7,2.3,3.7,1.1,3,1.9C2.1,2.6,1.1,3.8,2.4,4.6
		c0.9,0.9-0.2,1.9-1.2,1.7c-0.6,0-1,0.4-1,1c-0.5,3.6,2,1.3,2.5,3c0,0.1,0,0.2,0.1,0.2c0,0,0,0.1,0,0.1C1.8,12.3,1,12.3,3,14
		c0.4,0.4,1.1,0.4,1.4,0c0.5-0.9,2-1,2.1,0.2c-0.3,1.5,1.1,1.8,2.3,1.7c1.3,0,0.9-2.1,1.5-2.5c0.1-0.1,0.3-0.1,0.6,0
		c0.2,0.1,0.3,0.2,0.5,0.3c0.8,1.3,2,0.3,2.8-0.5c1-1-0.6-1.6-0.7-2.5c0-1.7,2.6-0.3,2.5-2C16,7.8,16.2,6.3,15,6.3z M10.4,8.7V7.2
		c0-1,1.6-1,1.5,0v1.5C11.9,9.7,10.4,9.7,10.4,8.7z M10.2,11.7c-1,1.5-5.3,1.1-4.3-1.1c1-0.7,2.2,1.3,3.2,0
		C9.8,9.9,10.9,11,10.2,11.7z M4.2,8.7V7.2c0-1,1.6-1,1.5,0v1.5C5.8,9.7,4.2,9.7,4.2,8.7z"/>
</g>
</svg>
